<svg width="22" height="28" stroke="currentColor" viewBox="0 0 22 28" fill="none" xmlns="http://www.w3.org/2000/svg">
<path d="M21 14V6.18625C21.0001 6.08758 20.9807 5.98987 20.9429 5.8987C20.9052 5.80754 20.8498 5.72473 20.78 5.655L16.845 1.72C16.7045 1.57931 16.5138 1.50018 16.315 1.5H1.75C1.55109 1.5 1.36032 1.57902 1.21967 1.71967C1.07902 1.86032 1 2.05109 1 2.25V25.75C1 25.9489 1.07902 26.1397 1.21967 26.2803C1.36032 26.421 1.55109 26.5 1.75 26.5H12.25M6 11.5H16M6 6.5H11M6 16.5H9.75" stroke="white" stroke-width="1.875" stroke-linecap="round" stroke-linejoin="round"/>
</svg>
