<?xml version="1.0" standalone="no"?>
<!DOCTYPE svg PUBLIC "-//W3C//DTD SVG 20010904//EN"
 "http://www.w3.org/TR/2001/REC-SVG-20010904/DTD/svg10.dtd">
<svg version="1.0" xmlns="http://www.w3.org/2000/svg"
 width="1024.000000pt" height="1024.000000pt" viewBox="0 0 1024.000000 1024.000000"
 preserveAspectRatio="xMidYMid meet">
<metadata>
Created by potrace 1.14, written by Peter Selinger 2001-2017
</metadata>
<g transform="translate(0.000000,1024.000000) scale(0.100000,-0.100000)"
fill="#000000" stroke="none">
<path d="M4050 8878 c-1310 -59 -2421 -1070 -2615 -2378 -31 -214 -36 -451
-33 -1605 4 -1226 2 -1172 58 -1291 61 -127 169 -226 306 -281 l69 -28 1265
-3 c1338 -3 1430 -1 1644 43 567 114 1057 382 1462 797 436 447 709 1011 783
1617 10 77 14 87 43 111 l32 27 -31 6 -30 6 -6 243 c-8 377 -59 638 -188 968
-142 363 -337 659 -628 951 -289 289 -583 484 -948 627 -378 149 -754 210
-1183 190z m273 -1257 c103 -36 180 -84 252 -156 113 -113 173 -245 182 -406
11 -190 -45 -339 -181 -475 -127 -127 -264 -184 -441 -184 -177 0 -314 57
-441 184 -89 89 -141 179 -170 295 -24 95 -16 254 18 348 70 197 234 348 440
403 95 26 254 22 341 -9z m690 -1546 c186 -39 334 -196 367 -388 24 -137 -17
-370 -95 -534 -55 -116 -91 -168 -184 -266 -162 -169 -386 -283 -666 -339
-146 -29 -429 -31 -580 -4 -505 91 -860 404 -949 837 -22 110 -30 245 -17 314
34 184 193 349 372 384 24 5 413 9 864 10 677 0 832 -2 888 -14z"/>
</g>
</svg>
