<svg width="27" height="25" viewBox="0 0 27 25" fill="none" xmlns="http://www.w3.org/2000/svg">
<path d="M24.0001 0.5H10.6667V4.66667H12.3334V2.16667H24.0001C24.5001 2.16667 24.8334 2.5 24.8334 3V12.1667C24.8334 12.6667 24.5001 13 24.0001 13H13.1667V18.8333H8.75008L5.66675 21.25V18.8333H3.16675C2.66675 18.8333 2.33341 18.5 2.33341 18V8.83333C2.33341 8.33333 2.66675 8 3.16675 8H14.0001V6.33333H3.16675C1.75008 6.33333 0.666748 7.41667 0.666748 8.83333V18C0.666748 19.4167 1.75008 20.5 3.16675 20.5H4.00008V24.75L9.25008 20.5H14.8334V14.6667H24.0001C25.4167 14.6667 26.5001 13.5833 26.5001 12.1667V3C26.5001 1.58333 25.4167 0.5 24.0001 0.5Z" fill="white"/>
</svg>
